<svg width="16" height="15" viewBox="0 0 16 15" fill="none" xmlns="http://www.w3.org/2000/svg">
<path d="M3.79861 2.28827C3.7984 2.70083 3.63432 3.09641 3.34245 3.38798C3.05058 3.67956 2.65484 3.84325 2.24228 3.84304C1.82972 3.84284 1.43414 3.67875 1.14256 3.38688C0.850984 3.09501 0.687294 2.69927 0.6875 2.28671C0.687706 1.87415 0.851793 1.47857 1.14366 1.187C1.43553 0.895418 1.83127 0.731728 2.24383 0.731934C2.65639 0.73214 3.05197 0.896226 3.34355 1.1881C3.63513 1.47996 3.79882 1.87571 3.79861 2.28827ZM3.84528 4.99493H0.734167V14.7327H3.84528V4.99493ZM8.76083 4.99493H5.66528V14.7327H8.72972V9.62271C8.72972 6.77604 12.4397 6.5116 12.4397 9.62271V14.7327H15.5119V8.56493C15.5119 3.76604 10.0208 3.94493 8.72972 6.3016L8.76083 4.99493Z" fill="white"/>
</svg>
